<svg xmlns="http://www.w3.org/2000/svg" viewBox="0 0 64 64" role="img" aria-label="Hugging Face">
  <circle cx="32" cy="31" r="23" fill="#FFD21E"/>
  <path fill="#FF9D00" d="M13 39c-6 1-10 5-10 10 0 4 3 7 8 7 6 0 11-5 14-11l-5-5c-3 5-5 7-7 7-1 0-2-1-1-2 1-1 3-2 5-2l-4-4Zm38 0c6 1 10 5 10 10 0 4-3 7-8 7-6 0-11-5-14-11l5-5c3 5 5 7 7 7 1 0 2-1 1-2-1-1-3-2-5-2l4-4Z"/>
  <path fill="#3A3A3A" d="M19 25c0-2 2-4 4-4s4 2 4 4h-3c0-1-1-1-1-1s-1 0-1 1h-3Zm18 0c0-2 2-4 4-4s4 2 4 4h-3c0-1-1-1-1-1s-1 0-1 1h-3Z"/>
  <path fill="none" stroke="#3A3A3A" stroke-linecap="round" stroke-width="3" d="M22 34c3 5 7 7 10 7s7-2 10-7"/>
</svg>
